<?xml version="1.0" encoding="utf-8"?><svg viewBox="0 0 128.41 128.41" xmlns="http://www.w3.org/2000/svg" xmlns:xlink="http://www.w3.org/1999/xlink"><style>:root>svg{display:none}:root>svg:target{display:block}</style><svg viewBox="0 0 128.411 128.411" id="checkbox" xmlns="http://www.w3.org/2000/svg"><path d="M127.526 15.294L45.665 78.216.863 42.861 0 59.255l44.479 53.862 83.932-81.451z"/></svg><svg viewBox="0 0 32 32" id="image-icon" xmlns="http://www.w3.org/2000/svg"><g data-name="Layer 2"><path d="M26 27H6a3 3 0 01-3-3V8a3 3 0 013-3h20a3 3 0 013 3v16a3 3 0 01-3 3zM6 7a1 1 0 00-1 1v16a1 1 0 001 1h20a1 1 0 001-1V8a1 1 0 00-1-1z"/><path d="M21 15a3 3 0 113-3 3 3 0 01-3 3zm0-4a1 1 0 101 1 1 1 0 00-1-1zm5 16a1 1 0 01-.83-.45l-4.34-6.5a1 1 0 00-1.66 0l-.34.5a1 1 0 01-1.66-1.1l.33-.51a3 3 0 015 0l4.33 6.51a1 1 0 01-.28 1.38.94.94 0 01-.55.17z"/><path d="M6 27a1 1 0 01-.54-.16 1 1 0 01-.3-1.38l6.23-9.62a3 3 0 012.5-1.37 3 3 0 012.5 1.34l6.42 9.64a1 1 0 01-1.66 1.1l-6.43-9.63a1 1 0 00-.83-.45 1 1 0 00-.83.46l-6.22 9.61A1 1 0 016 27z"/></g><path fill="none" d="M0 0h32v32H0z"/></svg></svg>